<svg width="42" height="45" viewBox="0 0 42 45" fill="none" xmlns="http://www.w3.org/2000/svg">
  <g clip-path="url(#clip0_1_2482)">
    <rect x="0.551727" y="0.413788" width="26.4483" height="26.4483" rx="2.03448" fill="#1DC9D4"/>
    <path d="M14.7931 16.6896C14.7931 15.566 15.704 14.6552 16.8276 14.6552H39.2069C40.3305 14.6552 41.2414 15.566 41.2414 16.6896V39.069C41.2414 40.1926 40.3305 41.1034 39.2069 41.1034H16.8276C15.704 41.1034 14.7931 40.1926 14.7931 39.069V16.6896Z" fill="white"/>
    <path d="M40.4586 13.716H27.9388V1.19637C27.9388 0.764211 27.5887 0.413788 27.1562 0.413788H1.33431C0.901749 0.413788 0.551727 0.764211 0.551727 1.19637V27.0184C0.551727 27.4506 0.901749 27.801 1.33431 27.801H13.8542V40.3209C13.8542 40.753 14.2042 41.1034 14.6367 41.1034H40.4588C40.8914 41.1034 41.2414 40.753 41.2414 40.3209V14.4986C41.2412 14.0664 40.8912 13.716 40.4586 13.716ZM14.6365 13.716C14.204 13.716 13.854 14.0664 13.854 14.4986V26.2359H2.11668V1.97874H26.3738V13.716H14.6365ZM20.5724 26.2361H15.4189V15.281L26.3738 15.0733V26.2359L20.5724 26.2361ZM15.4189 39.5383V27.801H27.1562C27.5887 27.801 27.9388 27.4506 27.9388 27.0184V15.281H39.676V39.5383H15.4189Z" fill="black"/>
  </g>
  <defs>
    <clipPath id="clip0_1_2482">
      <rect width="40.6897" height="44.063" fill="white" transform="translate(0.551727 0.413788)"/>
    </clipPath>
  </defs>
</svg>
