<svg width="42" height="42" viewBox="0 0 42 42" fill="none" xmlns="http://www.w3.org/2000/svg">
  <g clip-path="url(#clip0_1_2469)">
    <rect x="14.8621" y="15.1724" width="26.4483" height="26.4483" rx="2.03448" fill="white"/>
    <rect x="14.8621" y="15.1724" width="26.4483" height="26.4483" rx="2.03448" fill="white"/>
    <rect x="0.620697" y="0.93103" width="26.4483" height="26.4483" rx="2.03448" fill="white"/>
    <rect x="0.620697" y="0.93103" width="26.4483" height="26.4483" rx="2.03448" fill="white"/>
    <rect x="14.8621" y="15.1724" width="12.2069" height="12.2069" fill="#1DC9D4"/>
    <path d="M40.5276 14.2333H28.0077V1.71361C28.0077 1.28145 27.6577 0.93103 27.2251 0.93103H1.40328C0.970719 0.93103 0.620697 1.28145 0.620697 1.71361V27.5357C0.620697 27.9678 0.970719 28.3183 1.40328 28.3183H13.9231V40.8381C13.9231 41.2703 14.2731 41.6207 14.7057 41.6207H40.5278C40.9603 41.6207 41.3104 41.2703 41.3104 40.8381V15.0158C41.3102 14.5837 40.9601 14.2333 40.5276 14.2333ZM14.7055 14.2333C14.2729 14.2333 13.9229 14.5837 13.9229 15.0158V26.7531H2.18565V2.49599H26.4428V14.2333H14.7055ZM20.6414 26.7533H15.4879V15.7982L26.4428 15.5906V26.7531L20.6414 26.7533ZM15.4879 40.0555V28.3183H27.2251C27.6577 28.3183 28.0077 27.9678 28.0077 27.5357V15.7982H39.745V40.0555H15.4879Z" fill="black"/>
  </g>
  <defs>
    <clipPath id="clip0_1_2469">
      <rect width="40.6897" height="40.6897" fill="white" transform="translate(0.620697 0.93103)"/>
    </clipPath>
  </defs>
</svg>
