<svg width="42" height="42" viewBox="0 0 42 42" fill="none" xmlns="http://www.w3.org/2000/svg">
  <g clip-path="url(#clip0_1_2463)">
    <rect x="1.72214" y="1.69373" width="25.1019" height="25.3028" fill="#1DC9D4"/>
    <rect x="15.1768" y="15.3492" width="25.1019" height="25.3028" fill="#1DC9D4"/>
    <path d="M40.4241 13.9919H27.9043V1.47221C27.9043 1.04006 27.5542 0.689636 27.1217 0.689636H1.29982C0.867264 0.689636 0.517242 1.04006 0.517242 1.47221V27.2943C0.517242 27.7264 0.867264 28.0769 1.29982 28.0769H13.8197V40.5967C13.8197 41.0289 14.1697 41.3793 14.6022 41.3793H40.4243C40.8569 41.3793 41.2069 41.0289 41.2069 40.5967V14.7744C41.2067 14.3423 40.8567 13.9919 40.4241 13.9919ZM14.602 13.9919C14.1695 13.9919 13.8195 14.3423 13.8195 14.7744V26.5117H2.0822V2.25459H26.3393V13.9919H14.602ZM20.538 26.5119H15.3844V15.5568L26.3393 15.3492V26.5117L20.538 26.5119ZM15.3844 39.8141V28.0769H27.1217C27.5542 28.0769 27.9043 27.7264 27.9043 27.2943V15.5568H39.6415V39.8141H15.3844Z" fill="black"/>
  </g>
  <defs>
    <clipPath id="clip0_1_2463">
      <rect width="40.6897" height="40.6897" fill="white" transform="translate(0.517242 0.689636)"/>
    </clipPath>
  </defs>
</svg>
